<svg width="20" height="20" viewBox="0 0 20 20" fill="none" xmlns="http://www.w3.org/2000/svg">
<path d="M2.96875 8.4375C2.96875 9.15567 3.1102 9.8668 3.38503 10.5303C3.65986 11.1938 4.06269 11.7967 4.57051 12.3045C5.07833 12.8123 5.6812 13.2151 6.3447 13.49C7.0082 13.7648 7.71933 13.9062 8.4375 13.9062C9.15567 13.9062 9.8668 13.7648 10.5303 13.49C11.1938 13.2151 11.7967 12.8123 12.3045 12.3045C12.8123 11.7967 13.2151 11.1938 13.49 10.5303C13.7648 9.8668 13.9063 9.15567 13.9062 8.4375C13.9063 7.71933 13.7648 7.0082 13.49 6.3447C13.2151 5.6812 12.8123 5.07833 12.3045 4.57051C11.7967 4.06269 11.1938 3.65986 10.5303 3.38503C9.8668 3.1102 9.15567 2.96875 8.4375 2.96875C7.71933 2.96875 7.0082 3.1102 6.3447 3.38503C5.6812 3.65986 5.07833 4.06269 4.57051 4.57051C4.06269 5.07833 3.65986 5.6812 3.38503 6.3447C3.1102 7.0082 2.96875 7.71933 2.96875 8.4375Z" stroke="#333333" stroke-width="2" stroke-linecap="round" stroke-linejoin="round"/>
<path d="M17.0312 17.0312L12.3438 12.3438" stroke="#333333" stroke-width="2" stroke-linecap="round" stroke-linejoin="round"/>
</svg>
